# xmcd
#
# Track frame offsets:
# 150
# 13442
# 31016
# 48974
# 64572
# 77891
# 90499
# 106473
# 115676
# 125915
# 136705
# 145922
# 157799
# 169273
# 181297
# 192722
# 205929
# 218566
# 229816
# 242996
# 257743
# 271479
# 285711
# 297226
# 310330
#
# Disc length: 4293 seconds
#
#
# Revision: 0
# Processed by: cddbd v1.5.2PL0 Copyright (c) Steve Scherf et al.
# Submitted via: FreeRIP 2.945 
#
DISCID=7110c319
DTITLE=Eli Silva and Zé Goiano - Seleção de Ouro - As 25 Mais - Seleção de Ouro - As 25 Mais
DYEAR=1900
DGENRE=Sertanejo
TTITLE0=Amargurado
TTITLE1=Amores Perdidos
TTITLE2=Batidão diferente
TTITLE3=Cama verde
TTITLE4=Canja de arroz
TTITLE5=Estranho no ninho
TTITLE6=Estrela de ouro
TTITLE7=Eu só toco viola
TTITLE8=Mergulho do amor
TTITLE9=Migalhas de amor
TTITLE10=O mineiro perdeu o trem
TTITLE11=Paixão mineira
TTITLE12=Pedra preta
TTITLE13=Peixinho arisco
TTITLE14=Por dois olhos negros
TTITLE15=Por isso estou com ela
TTITLE16=Quando o amor pega a gente
TTITLE17=Rainha da noite
TTITLE18=Raízes do amor
TTITLE19=Rebendando de paixão
TTITLE20=Roseta da paixão
TTITLE21=Saudade e solidão
TTITLE22=Sonhando com o pantanal
TTITLE23=Tela quente
TTITLE24=Um pouco de você
EXTD=Contatos para Show\n(14) 3239-2241 - Zé Goiano\n(14) 9748-8486 - Eli Silva
EXTT0=
EXTT1=
EXTT2=
EXTT3=
EXTT4=
EXTT5=
EXTT6=
EXTT7=
EXTT8=
EXTT9=
EXTT10=
EXTT11=
EXTT12=
EXTT13=
EXTT14=
EXTT15=
EXTT16=
EXTT17=
EXTT18=
EXTT19=
EXTT20=
EXTT21=
EXTT22=
EXTT23=
EXTT24=
PLAYORDER=
